<svg xmlns="http://www.w3.org/2000/svg" viewBox="0 0 400 300">
  <rect width="400" height="300" rx="16" fill="#1E2023"/>
  <!-- ptasznik królewski: nadrzewny, wzór ornamentalny na odnóżach -->
  <line x1="200" y1="20" x2="200" y2="280" stroke="#50C878" stroke-width="9" stroke-linecap="round" opacity="0.35"/>
  <!-- odnóża -->
  <path d="M189,92 L155,86 L148,132" fill="none" stroke="#50C878" stroke-width="6.5" stroke-linecap="round" stroke-linejoin="round"/>
  <path d="M189,109 L149,107 L133,163" fill="none" stroke="#50C878" stroke-width="6.5" stroke-linecap="round" stroke-linejoin="round"/>
  <path d="M189,132 L143,134 L117,200" fill="none" stroke="#50C878" stroke-width="6.5" stroke-linecap="round" stroke-linejoin="round"/>
  <path d="M189,150 L137,156 L102,232" fill="none" stroke="#50C878" stroke-width="6.5" stroke-linecap="round" stroke-linejoin="round"/>
  <path d="M211,92 L245,86 L252,132" fill="none" stroke="#50C878" stroke-width="6.5" stroke-linecap="round" stroke-linejoin="round"/>
  <path d="M211,109 L251,107 L267,163" fill="none" stroke="#50C878" stroke-width="6.5" stroke-linecap="round" stroke-linejoin="round"/>
  <path d="M211,132 L257,134 L283,200" fill="none" stroke="#50C878" stroke-width="6.5" stroke-linecap="round" stroke-linejoin="round"/>
  <path d="M211,150 L263,156 L298,232" fill="none" stroke="#50C878" stroke-width="6.5" stroke-linecap="round" stroke-linejoin="round"/>
  <!-- akcenty kolorystyczne na stawach -->
  <circle cx="155" cy="86" r="5" fill="#D8C468" opacity="0.9"/>
  <circle cx="149" cy="107" r="5" fill="#D8C468" opacity="0.9"/>
  <circle cx="143" cy="134" r="5" fill="#D8C468" opacity="0.9"/>
  <circle cx="137" cy="156" r="5" fill="#D8C468" opacity="0.9"/>
  <circle cx="245" cy="86" r="5" fill="#D8C468" opacity="0.9"/>
  <circle cx="251" cy="107" r="5" fill="#D8C468" opacity="0.9"/>
  <circle cx="257" cy="134" r="5" fill="#D8C468" opacity="0.9"/>
  <circle cx="263" cy="156" r="5" fill="#D8C468" opacity="0.9"/>
  <ellipse cx="200" cy="165" rx="34" ry="42" fill="#50C878"/>
  <circle cx="200" cy="127" r="22" fill="#50C878"/>
  <circle cx="193" cy="119" r="3" fill="#98FB98"/>
  <circle cx="207" cy="119" r="3" fill="#98FB98"/>
  <path d="M195,142 L191,156" stroke="#98FB98" stroke-width="2.5" stroke-linecap="round"/>
  <path d="M205,142 L209,156" stroke="#98FB98" stroke-width="2.5" stroke-linecap="round"/>
</svg>
